<svg width="653" height="614" viewBox="0 0 653 614" fill="none" xmlns="http://www.w3.org/2000/svg">
<path fill-rule="evenodd" clip-rule="evenodd" d="M475.701 541.555L475.443 541.515C466.895 540.23 457.864 541.916 450.002 546.926C444.5 550.432 440.232 555.145 437.332 560.504L437.21 560.731C426.103 555.581 412.684 556.027 401.598 563.092C400.768 563.621 399.964 564.181 399.193 564.761C381.467 561.097 370.474 548.806 362.657 536.54C327.27 481.013 328.25 412.038 348.803 378.859C347.115 398.185 348.216 415.354 352.1 430.373C361.334 466.078 384.121 485.43 409.166 500.012C393.875 479.167 396.446 464.999 400.256 450.963L401.004 448.247C401.13 447.791 401.256 447.335 401.385 446.884L402.128 444.15C403.342 439.573 404.415 434.902 404.77 429.91C409.45 431.693 414.137 432.694 418.803 433.523L421.595 434.004C422.059 434.078 422.52 434.159 422.987 434.237L425.764 434.707C440.101 437.178 454.031 440.831 466.461 463.499C463.821 434.639 455.903 405.81 427.444 382.357C415.468 372.489 400.364 364.239 382.136 357.61C420.877 352.969 483.831 381.211 519.231 436.759C527.048 449.025 533.55 464.177 529.385 481.792C528.529 482.249 527.687 482.738 526.857 483.267C515.766 490.335 509.698 502.307 509.676 514.55C503.51 514.881 497.339 516.759 491.759 520.315C483.819 525.375 478.45 532.947 476.034 541.336L475.701 541.555Z" fill="url(#paint0_radial_1119_706)" fill-opacity="0.6"/>
<path fill-rule="evenodd" clip-rule="evenodd" d="M197.444 553.55L197.356 553.306C194.191 545.265 188.214 538.285 179.947 533.981C174.158 530.972 167.942 529.629 161.854 529.794L161.593 529.803C160.503 517.613 153.403 506.215 141.739 500.149C140.869 499.693 139.981 499.275 139.09 498.894C133.404 481.713 138.555 466.051 145.271 453.147C175.665 394.734 235.88 361.099 274.889 362.309C257.308 370.509 242.992 380.048 231.925 390.925C205.626 416.773 200.257 446.182 200.154 475.164C210.557 451.491 224.113 446.642 238.176 442.917L240.901 442.212C241.357 442.092 241.817 441.977 242.273 441.857L245.01 441.137C249.583 439.902 254.166 438.49 258.666 436.305C259.46 441.248 260.935 445.812 262.55 450.265L263.531 452.917C263.696 453.359 263.861 453.8 264.026 454.241L265.008 456.885C270.033 470.535 273.838 484.423 260.42 506.528C284.095 489.815 305.101 468.542 311.178 432.168C313.74 416.858 313.332 399.653 309.96 380.552C333.347 411.786 340.368 480.426 309.966 538.856C303.25 551.76 293.377 564.962 276.039 570.166C275.219 569.651 274.371 569.167 273.496 568.714C261.829 562.643 248.426 563.374 237.813 569.475C234.444 564.296 229.735 559.895 223.86 556.839C215.511 552.491 206.267 551.636 197.8 553.734L197.444 553.55Z" fill="url(#paint1_radial_1119_706)" fill-opacity="0.6"/>
<path fill-rule="evenodd" clip-rule="evenodd" d="M604.426 294.596L604.261 294.797C598.876 301.561 595.819 310.221 596.229 319.533C596.515 326.056 598.465 332.106 601.647 337.302L601.787 337.521C591.778 344.562 585.455 356.403 586.03 369.541C586.071 370.526 586.151 371.499 586.272 372.46C574.232 385.978 558.096 389.351 543.563 389.989C477.779 392.869 418.542 357.537 400.083 323.151C415.972 334.273 431.39 341.902 446.343 346.048C481.878 355.898 510.034 345.841 535.183 331.445C509.481 334.271 498.499 324.957 488.248 314.637L486.266 312.63C485.936 312.294 485.605 311.958 485.275 311.622L483.285 309.613C479.931 306.268 476.417 303.004 472.272 300.197C476.153 297.04 479.369 293.482 482.419 289.859L484.232 287.679C484.526 287.314 484.827 286.951 485.129 286.589L486.924 284.413C496.234 273.243 506.356 263.003 532.204 263.567C505.893 251.424 476.969 243.87 442.432 256.792C427.891 262.228 413.195 271.183 398.343 283.653C413.691 247.781 469.63 207.38 535.44 204.497C549.974 203.859 566.34 205.809 579.518 218.216C579.482 219.188 579.491 220.166 579.531 221.15C580.104 234.285 587.442 245.531 598.03 251.668C595.233 257.179 593.774 263.461 594.066 270.069C594.476 279.477 598.355 287.91 604.41 294.197L604.426 294.596Z" fill="url(#paint2_radial_1119_706)" fill-opacity="0.6"/>
<path fill-rule="evenodd" clip-rule="evenodd" d="M454.936 59.6389L455.023 59.8835C458.188 67.9244 464.161 74.907 472.432 79.2077C478.216 82.2198 484.435 83.5557 490.526 83.3954L490.786 83.3864C491.877 95.5761 498.969 106.973 510.635 113.044C511.511 113.496 512.393 113.917 513.282 114.293C518.97 131.48 513.825 147.138 507.109 160.043C476.715 218.455 416.496 252.093 377.488 250.875C395.068 242.676 409.388 233.141 420.455 222.264C446.754 196.416 452.12 167.003 452.225 138.025C441.819 161.693 428.266 166.547 414.201 170.267L411.474 170.981C411.022 171.098 410.563 171.213 410.107 171.333L407.37 172.053C402.797 173.287 398.214 174.699 393.714 176.884C392.919 171.941 391.445 167.378 389.829 162.924L388.846 160.267C388.681 159.826 388.516 159.385 388.351 158.944L387.372 156.304C382.347 142.654 378.542 128.766 391.954 106.665C368.28 123.377 347.278 144.647 341.2 181.022C338.638 196.332 339.044 213.532 342.415 232.633C319.028 201.399 312.01 132.764 342.412 74.3339C349.129 61.4298 359.001 48.2282 376.336 43.0191C377.159 43.5392 378.007 44.0232 378.883 44.4757C390.549 50.5468 403.952 49.816 414.562 43.7172C417.932 48.8888 422.645 53.2941 428.516 56.3458C436.865 60.6934 446.107 61.5565 454.579 59.455L454.936 59.6389Z" fill="url(#paint3_radial_1119_706)" fill-opacity="0.6"/>
<path fill-rule="evenodd" clip-rule="evenodd" d="M47.9287 318.581L48.0973 318.385C53.4747 311.619 56.5364 302.956 56.1257 293.644C55.8431 287.125 53.893 281.076 50.7061 275.882L50.5668 275.664C60.5807 268.62 66.9023 256.779 66.3269 243.641C66.2865 242.656 66.2059 241.683 66.0852 240.722C78.1249 227.204 94.261 223.831 108.794 223.193C174.578 220.314 233.815 255.645 252.269 290.035C236.385 278.909 220.964 271.276 206.014 267.134C170.476 257.279 142.321 267.337 117.174 281.737C142.871 278.914 153.853 288.228 164.109 298.545L166.087 300.555C166.414 300.886 166.744 301.222 167.074 301.558L169.072 303.569C172.426 306.914 175.94 310.178 180.082 312.981C176.199 316.145 172.989 319.7 169.938 323.324L168.125 325.503C167.823 325.866 167.53 326.231 167.229 326.594L165.43 328.764C156.123 339.939 145.994 350.177 120.145 349.614C146.459 361.761 175.388 369.313 209.925 356.391C224.464 350.949 239.157 342.002 254.015 329.529C238.658 365.399 182.724 405.798 116.917 408.685C102.384 409.323 86.0123 407.376 72.8359 394.962C72.8701 393.998 72.8664 393.017 72.8211 392.035C72.2454 378.896 64.9155 367.651 54.3269 361.514C57.1242 356.004 58.5779 349.724 58.291 343.113C57.8812 333.706 54.0022 325.272 47.9474 318.985L47.9287 318.581Z" fill="url(#paint4_radial_1119_706)" fill-opacity="0.6"/>
<path fill-rule="evenodd" clip-rule="evenodd" d="M176.667 71.6144L176.925 71.6549C185.47 72.935 194.504 71.254 202.365 66.244C207.867 62.7378 212.135 58.0242 215.036 52.6659L215.157 52.4384C226.262 57.5841 239.675 57.1408 250.767 50.0726C251.597 49.5435 252.399 48.9914 253.175 48.4083C270.9 52.0724 281.889 64.3664 289.706 76.6323C325.093 132.16 324.115 201.126 303.56 234.306C305.25 214.984 304.15 197.817 300.263 182.793C291.027 147.096 268.242 127.735 243.2 113.158C258.492 134.003 255.917 148.167 252.11 162.208L251.358 164.927C251.237 165.38 251.108 165.831 250.981 166.286L250.238 169.02C249.016 173.596 247.952 178.268 247.592 183.264C242.916 181.477 238.226 180.472 233.563 179.647L230.771 179.166C230.305 179.088 229.841 179.014 229.38 178.933L226.597 178.467C212.262 175.988 198.336 172.339 185.9 149.674C188.537 178.53 196.463 207.36 224.919 230.808C236.899 240.682 252.002 248.931 270.23 255.56C231.487 260.197 168.53 231.962 133.131 176.415C125.314 164.149 118.817 148.993 122.973 131.377C123.832 130.925 124.676 130.428 125.506 129.898C136.593 122.833 142.665 110.858 142.69 98.6202C148.856 98.2889 155.028 96.4115 160.608 92.8555C168.547 87.7958 173.913 80.218 176.333 71.8341L176.667 71.6144Z" fill="url(#paint5_radial_1119_706)" fill-opacity="0.6"/>
<defs>
<radialGradient id="paint0_radial_1119_706" cx="0" cy="0" r="1" gradientTransform="matrix(-61.8172 -76.8558 69.0693 -56.5036 427.293 445.083)" gradientUnits="userSpaceOnUse">
<stop stop-color="#C5603A" stop-opacity="0.28"/>
<stop offset="1" stop-color="#210E4A"/>
</radialGradient>
<radialGradient id="paint1_radial_1119_706" cx="0" cy="0" r="1" gradientTransform="matrix(-60.2065 -71.9172 78.3041 -61.7481 255.065 464.911)" gradientUnits="userSpaceOnUse">
<stop stop-color="#C5603A" stop-opacity="0.28"/>
<stop offset="1" stop-color="#210E4A"/>
</radialGradient>
<radialGradient id="paint2_radial_1119_706" cx="0" cy="0" r="1" gradientTransform="matrix(-60.208 -71.918 78.3099 -61.752 520.173 295.96)" gradientUnits="userSpaceOnUse">
<stop stop-color="#C5603A" stop-opacity="0.28"/>
<stop offset="1" stop-color="#210E4A"/>
</radialGradient>
<radialGradient id="paint3_radial_1119_706" cx="0" cy="0" r="1" gradientTransform="matrix(-60.2067 -71.9179 78.3023 -61.747 412.997 127.78)" gradientUnits="userSpaceOnUse">
<stop stop-color="#C5603A" stop-opacity="0.28"/>
<stop offset="1" stop-color="#210E4A"/>
</radialGradient>
<radialGradient id="paint4_radial_1119_706" cx="0" cy="0" r="1" gradientTransform="matrix(-60.2067 -71.9165 78.3079 -61.7504 147.868 296.722)" gradientUnits="userSpaceOnUse">
<stop stop-color="#C5603A" stop-opacity="0.28"/>
<stop offset="1" stop-color="#210E4A"/>
</radialGradient>
<radialGradient id="paint5_radial_1119_706" cx="0" cy="0" r="1" gradientTransform="matrix(-61.8172 -76.8557 69.0698 -56.504 238.312 148.58)" gradientUnits="userSpaceOnUse">
<stop stop-color="#C5603A" stop-opacity="0.28"/>
<stop offset="1" stop-color="#210E4A"/>
</radialGradient>
</defs>
</svg>
