<svg width="248" height="248" viewBox="0 0 248 248" fill="none" xmlns="http://www.w3.org/2000/svg">
<g filter="url(#filter0_d_1082_510)">
<path d="M35.1552 225.735L72.1423 188.595L68.6145 184.313L50.4274 183.143L43.7285 166.133L29.7379 160.574L0 190.434H35.1555L35.1552 225.735Z" fill="#FFD700"/>
<path d="M196 160.574L182 166.133L175.301 183.144L157.115 184.31L153.591 188.592L190.577 225.735V190.431H225.733L196 160.574Z" fill="#FFD700"/>
<path d="M25.1437 111.151L21.0129 127.19L33.7759 137.741L34.8327 154.27L50.2335 160.36L56.3238 175.761L72.8527 176.817L83.4074 189.58L99.4525 185.457L113.444 194.319L127.435 185.457L143.474 189.588L154.025 176.825L170.554 175.768L176.644 160.368L192.045 154.277L193.102 137.748L205.865 127.194L201.742 111.151L210.603 97.1593L201.742 83.1679L205.873 67.1288L193.11 56.5741L192.053 40.0451L176.652 33.9549L170.562 18.5541L154.033 17.4973L143.478 4.73429L127.433 8.85936L113.444 0L99.4523 8.86133L83.4131 4.73049L72.8624 17.4935L56.3334 18.5464L50.2432 33.9473L34.8424 40.0375L33.7856 56.5664L21.0226 67.1211L25.1438 83.1682L16.2844 97.1595L25.1437 111.151ZM45.7496 126.708C44.6773 124.251 43.7285 121.705 42.9321 119.149L50.3548 116.84C51.0664 119.125 51.913 121.395 52.8734 123.594L45.7496 126.708ZM56.2308 143.851C54.5394 141.779 52.9426 139.591 51.4809 137.344L57.9991 133.107C59.3086 135.12 60.7395 137.08 62.2515 138.933L56.2308 143.851ZM70.9374 157.549C68.7486 156.006 66.6195 154.322 64.6137 152.55L69.755 146.724C71.5505 148.309 73.4597 149.813 75.4172 151.194L70.9374 157.549ZM88.7954 166.788C86.2691 165.893 83.7622 164.848 81.3495 163.683L84.7301 156.685C86.8901 157.73 89.1291 158.663 91.3871 159.46L88.7954 166.788ZM108.483 170.838C105.811 170.663 103.12 170.337 100.486 169.87L101.838 162.214C104.197 162.63 106.607 162.925 109.001 163.083L108.483 170.838ZM120.56 170.663L119.821 162.925C122.207 162.696 124.606 162.335 126.953 161.849L128.53 169.459C125.905 170.001 123.225 170.406 120.56 170.663ZM140.118 166.034L137.309 158.787C139.544 157.921 141.754 156.922 143.877 155.817L147.464 162.711C145.09 163.947 142.618 165.066 140.118 166.034ZM157.693 156.278L153.03 150.056C154.951 148.618 156.808 147.059 158.557 145.424L163.866 151.098C161.914 152.928 159.836 154.67 157.693 156.278ZM171.991 142.159L165.831 137.417C167.293 135.517 168.664 133.516 169.912 131.467L176.55 135.513C175.163 137.799 173.628 140.034 171.991 142.159ZM181.971 124.71L174.762 121.808C175.657 119.584 176.438 117.287 177.082 114.983L184.57 117.069C183.849 119.65 182.974 122.222 181.971 124.71ZM186.852 105.203L179.123 104.364C179.379 101.994 179.512 99.5719 179.512 97.1592L184.976 96.9567L187.284 97.0801C187.284 99.8475 187.137 102.557 186.852 105.203ZM186.254 84.8189L178.587 86.1052C178.189 83.7428 177.657 81.3746 177.005 79.074L184.482 76.9488C185.213 79.5272 185.811 82.1732 186.254 84.8189ZM176.398 58.5508C177.796 60.8322 179.088 63.2139 180.233 65.6363L173.206 68.9592C172.18 66.7896 171.021 64.6567 169.771 62.6162L176.398 58.5508ZM163.654 43.0167C165.618 44.8391 167.502 46.7869 169.255 48.8117L163.382 53.9027C161.812 52.0918 160.125 50.3466 158.364 48.7189L163.654 43.0167ZM147.2 31.4707C149.582 32.6953 151.923 34.0664 154.161 35.5513L149.87 42.0291C147.868 40.7042 145.777 39.4758 143.648 38.3843L147.2 31.4707ZM128.228 24.7979C130.847 25.3301 133.475 26.0147 136.033 26.8344L133.662 34.2339C131.373 33.4991 129.026 32.8858 126.687 32.4114L128.228 24.7979ZM116.23 23.367L115.947 31.1347C113.55 31.046 111.108 31.0846 108.727 31.2505L108.183 23.498C110.834 23.3128 113.552 23.2667 116.23 23.367ZM96.2338 25.334L98.0408 32.8935C95.7092 33.4489 93.3816 34.1412 91.1311 34.9493L88.5083 27.6307C91.0269 26.7301 93.6266 25.955 96.2338 25.334ZM97.8306 77.3399L113.444 46.638L129.055 77.3399L163.967 82.2634L138.705 106.165L144.666 139.91L113.444 123.977L82.2195 139.91L88.1804 106.165L62.9189 82.2634L97.8306 77.3399ZM77.5101 32.6353L81.2996 39.4216C79.2091 40.5922 77.1572 41.8862 75.2054 43.2767L70.7005 36.9416C72.8816 35.3892 75.1747 33.9409 77.5101 32.6353ZM61.4551 44.7249L66.9302 50.2405C65.2197 51.9395 63.592 53.7387 62.0877 55.5921L56.0479 50.6956C57.7315 48.6225 59.5499 46.613 61.4551 44.7249ZM49.2283 60.6791L55.986 64.5188C54.7922 66.6131 53.7123 68.7865 52.7635 70.9773L45.6281 67.8917C46.6907 65.4425 47.8995 63.0144 49.2283 60.6791ZM41.7671 79.3487L49.3112 81.2136C48.7365 83.5374 48.2814 85.9191 47.9632 88.2991L40.2605 87.2654C40.6154 84.6098 41.121 81.9446 41.7671 79.3487ZM47.4021 99.1064C47.4715 101.511 47.6702 103.93 47.9999 106.292L40.3012 107.357C39.9367 104.718 39.715 102.017 39.6359 99.3321L47.4021 99.1064Z" fill="#FFD700"/>
<path d="M109.375 214.102H117.521V222.247H109.375V214.102Z" fill="#FFD700"/>
<path d="M124.499 214.102H132.644V222.247H124.499V214.102Z" fill="#FFD700"/>
<path d="M93.0854 214.102H101.231V222.247H93.0854V214.102Z" fill="#FFD700"/>
</g>
<defs>
<filter id="filter0_d_1082_510" x="0" y="0" width="247.733" height="247.734" filterUnits="userSpaceOnUse" color-interpolation-filters="sRGB">
<feFlood flood-opacity="0" result="BackgroundImageFix"/>
<feColorMatrix in="SourceAlpha" type="matrix" values="0 0 0 0 0 0 0 0 0 0 0 0 0 0 0 0 0 0 127 0" result="hardAlpha"/>
<feOffset dx="11" dy="11"/>
<feGaussianBlur stdDeviation="5.5"/>
<feComposite in2="hardAlpha" operator="out"/>
<feColorMatrix type="matrix" values="0 0 0 0 0 0 0 0 0 0 0 0 0 0 0 0 0 0 0.25 0"/>
<feBlend mode="normal" in2="BackgroundImageFix" result="effect1_dropShadow_1082_510"/>
<feBlend mode="normal" in="SourceGraphic" in2="effect1_dropShadow_1082_510" result="shape"/>
</filter>
</defs>
</svg>
