<svg width="1062" height="968" viewBox="0 0 1062 968" fill="none" xmlns="http://www.w3.org/2000/svg">
<path d="M907.378 528.325C908.077 531.236 908.627 534.175 909.027 537.142C911.465 547.839 913.201 558.676 914.232 569.597C915.038 577.317 915.261 585.089 914.908 592.842C915.017 593.394 914.88 593.966 914.534 594.404C914.187 594.847 913.666 595.115 913.108 595.144C912.547 595.167 912.005 594.949 911.616 594.541C911.231 594.134 911.045 593.578 911.1 593.021C909.273 585.622 907.999 578.094 907.279 570.508C905.367 559.953 902.836 549.524 899.702 539.269C898.973 535.993 898.059 532.765 896.965 529.597C897.371 529.257 897.835 529 898.337 528.835C901.318 528.295 904.353 528.127 907.378 528.325Z" fill="url(#paint0_linear_1218_1414)"/>
<path d="M907.09 591.172C908.593 592.717 908.572 595.185 907.052 596.709C905.484 598.162 903.06 598.142 901.515 596.671C900.615 595.973 900.066 594.922 899.999 593.785C899.932 592.648 900.359 591.541 901.165 590.741C901.976 589.943 903.092 589.531 904.227 589.616C905.364 589.697 906.402 590.265 907.09 591.172Z" fill="url(#paint1_linear_1218_1414)"/>
<path d="M905.419 579.962C906.916 581.51 906.901 583.975 905.38 585.503C903.809 586.951 901.384 586.935 899.839 585.464C898.645 583.88 898.804 581.657 900.214 580.264C901.629 578.872 903.852 578.746 905.419 579.962Z" fill="url(#paint2_linear_1218_1414)"/>
<path d="M903.825 568.389C905.323 569.938 905.307 572.402 903.787 573.926C902.22 575.379 899.795 575.364 898.246 573.887C897.351 573.19 896.796 572.138 896.73 571.001C896.666 569.87 897.09 568.757 897.901 567.958C898.712 567.16 899.827 566.753 900.958 566.832C902.094 566.913 903.138 567.482 903.825 568.389Z" fill="url(#paint3_linear_1218_1414)"/>
<path d="M918.6 587.774C919.732 586.639 921.436 586.3 922.92 586.92C924.4 587.535 925.359 588.989 925.344 590.593C925.334 592.194 924.356 593.631 922.866 594.228C921.38 594.826 919.677 594.467 918.561 593.315C917.059 591.765 917.079 589.302 918.6 587.774Z" fill="url(#paint4_linear_1218_1414)"/>
<path d="M917.201 599.03C918.336 600.162 918.674 601.871 918.055 603.35C917.44 604.83 915.986 605.789 914.385 605.779C912.78 605.769 911.343 604.79 910.746 603.3C910.149 601.81 910.508 600.106 911.66 598.991C913.209 597.494 915.673 597.509 917.201 599.03Z" fill="url(#paint5_linear_1218_1414)"/>
<path d="M923.679 581.855C922.939 582.583 921.934 582.981 920.894 582.953C919.857 582.931 918.873 582.484 918.165 581.724C916.663 580.175 916.683 577.711 918.203 576.188C919.79 574.837 922.157 574.952 923.602 576.449C925.052 577.951 925.084 580.319 923.679 581.855Z" fill="url(#paint6_linear_1218_1414)"/>
<path d="M917.137 570.295C916.002 569.163 915.664 567.454 916.279 565.974C916.899 564.495 918.348 563.535 919.953 563.546C921.558 563.556 922.994 564.54 923.592 566.025C924.189 567.515 923.825 569.217 922.678 570.334C921.128 571.836 918.665 571.816 917.137 570.295Z" fill="url(#paint7_linear_1218_1414)"/>
<path d="M378.168 324.193C380.326 320.271 382.779 316.517 385.515 312.975C389.334 307.97 393.456 303.201 397.849 298.693C398.957 297.375 400.14 296.169 401.318 294.966C402.862 295.705 404.262 296.714 405.463 297.94C405.714 298.084 405.872 298.348 405.892 298.633C404.411 299.871 403.004 301.186 401.678 302.579C397.089 306.672 392.738 311.023 388.646 315.608C385.962 319.095 383.052 322.399 379.937 325.508C379.574 325.996 378.882 326.096 378.394 325.733C377.905 325.37 377.805 324.682 378.168 324.193Z" fill="url(#paint8_linear_1218_1414)"/>
<path d="M385.235 327.37C385.528 328.59 384.795 329.826 383.583 330.145C383.009 330.283 382.406 330.192 381.904 329.885C381.403 329.578 381.039 329.083 380.9 328.514C380.588 327.314 381.304 326.089 382.5 325.776C383.697 325.458 384.922 326.174 385.235 327.37Z" fill="url(#paint9_linear_1218_1414)"/>
<path d="M386.711 320.787C387.288 320.616 387.902 320.699 388.413 321.008C388.924 321.317 389.278 321.83 389.393 322.418C389.56 322.994 389.481 323.609 389.172 324.12C388.858 324.63 388.345 324.984 387.762 325.1C386.567 325.389 385.37 324.66 385.081 323.465C384.791 322.274 385.521 321.073 386.711 320.787Z" fill="url(#paint10_linear_1218_1414)"/>
<path d="M391.027 315.581C391.601 315.443 392.204 315.533 392.705 315.84C393.207 316.147 393.57 316.642 393.708 317.216C393.973 317.835 393.955 318.544 393.653 319.15C393.355 319.757 392.802 320.2 392.148 320.363C391.493 320.53 390.796 320.403 390.246 320.01C389.692 319.617 389.341 319.007 389.277 318.333C389.056 317.1 389.818 315.906 391.027 315.581Z" fill="url(#paint11_linear_1218_1414)"/>
<path d="M375.145 319.001C376.016 318.792 376.924 319.128 377.454 319.849C377.983 320.576 378.022 321.544 377.559 322.308C377.09 323.076 376.21 323.484 375.324 323.346C374.442 323.209 373.725 322.55 373.51 321.682C373.343 321.107 373.422 320.491 373.735 319.981C374.045 319.47 374.557 319.116 375.145 319.001Z" fill="url(#paint12_linear_1218_1414)"/>
<path d="M377.905 328.183C378.121 329.415 377.363 330.609 376.154 330.935C375.286 331.09 374.411 330.719 373.922 329.992C373.429 329.259 373.42 328.308 373.889 327.565C374.361 326.823 375.227 326.43 376.099 326.566C376.967 326.7 377.676 327.332 377.905 328.183Z" fill="url(#paint13_linear_1218_1414)"/>
<path d="M381.531 315.094C381.815 316.308 381.056 317.527 379.842 317.811C378.625 318.09 377.41 317.337 377.126 316.119C377.046 315.509 377.214 314.891 377.59 314.406C377.967 313.921 378.525 313.602 379.133 313.527C380.218 313.349 381.26 314.026 381.531 315.094Z" fill="url(#paint14_linear_1218_1414)"/>
<path d="M381.165 310.838C381.026 310.269 381.117 309.662 381.424 309.16C381.731 308.658 382.225 308.3 382.799 308.162C383.385 307.993 384.019 308.076 384.544 308.388C385.069 308.701 385.442 309.218 385.574 309.815C385.788 311.016 385.031 312.182 383.846 312.474C383.27 312.641 382.655 312.562 382.145 312.248C381.634 311.939 381.28 311.426 381.165 310.838Z" fill="url(#paint15_linear_1218_1414)"/>
<path d="M400.06 264.632C400.891 261.163 398.586 259.623 396.923 257.042L396.926 257.047C394.554 253.529 394.03 249.087 395.521 245.118C397.434 242.243 399.849 239.734 402.645 237.709C406.387 234.009 407.534 228.419 405.542 223.541C404.189 219.254 402.8 213.474 408.938 212.663C415.077 211.852 418.581 216.659 422.263 220.314L422.268 220.315C426.432 224.995 431.221 229.077 436.501 232.441C440.702 235.551 446.154 236.415 451.109 234.755C455.862 233.12 459.829 230.206 464.41 228.034C482.024 220.262 506.766 214.994 518.968 233.963C521.276 237.485 523.164 241.261 524.595 245.222C529.379 244.19 534.27 243.764 539.161 243.952C542.524 244.507 545.851 245.269 549.119 246.239C552.827 247.304 556.443 248.667 559.933 250.314C563.701 252.214 567.192 254.614 570.306 257.459C571.932 258.94 573.768 260.368 575.257 262.013L579.399 267.464L579.404 267.465C582.109 271.298 584.446 275.374 586.394 279.64C588.34 284.054 589.998 288.586 591.367 293.216C594.056 302.822 595.815 312.663 596.613 322.608C597.385 332.812 597.449 343.053 596.797 353.266C596.525 358.549 596.148 363.017 595.378 368.284C594.614 373.548 593.976 377.855 593.095 383.194C592.31 386.472 592.086 389.889 591.487 393.212L591.492 393.213C592.209 392.249 592.88 391.254 593.496 390.222C603.709 376.237 615.304 363.317 628.098 351.648C634.35 346.031 640.929 340.793 647.804 335.96C654.708 331.561 661.953 327.731 669.476 324.503L680.394 320.28C684.214 319.213 688.112 318.662 691.847 317.969L691.846 317.974C699.081 316.629 706.469 316.265 713.801 316.89C720.682 317.432 727.504 318.569 734.191 320.289C739.743 322.356 745.15 324.807 750.363 327.629C757.778 331.73 764.669 336.704 770.888 342.451C776.59 337.612 782.867 333.492 789.578 330.187C825.14 313.244 856.739 344.292 875.357 371.636C880.123 378.624 883.473 386.559 888.915 393.211C894.496 400.393 903.294 404.325 912.366 403.681C923.252 403.554 934.074 401.948 944.524 398.9C953.245 396.83 963.166 393.459 971.149 399.83C979.136 406.202 972.154 413.841 966.548 419.038C962.93 421.667 960.17 425.308 958.619 429.503C957.068 433.699 956.797 438.26 957.834 442.613C960.018 448.151 961.189 454.036 961.298 459.987C960.101 467.345 955.327 473.626 948.565 476.755C943.749 479.067 938.589 479.12 936.683 485.005C932.638 498.997 936.975 514.799 920.288 521.598C912.259 524.926 904.843 521.96 897.013 524.047C890.974 525.673 890.84 530.793 888.41 535.56C885.16 542.107 878.981 546.703 871.777 547.923C865.764 547.574 859.864 546.161 854.35 543.749C850.026 542.59 845.45 542.748 841.216 544.207C836.984 545.661 833.286 548.354 830.59 551.932C825.413 557.825 817.563 564.962 811.334 556.631C805.104 548.3 808.723 538.568 811.001 529.9C814.266 519.531 816.077 508.766 816.384 497.901C817.418 488.822 813.845 479.825 806.872 473.922C800.367 468.402 792.483 464.925 785.56 459.899C758.639 440.767 728.453 408.768 745.839 373.406C750.369 364.408 756.317 356.201 763.453 349.09L756.854 345.627C752.925 343.147 748.715 341.14 744.312 339.653C739.539 337.782 734.669 336.154 729.728 334.774C724.244 333.657 718.684 332.954 713.093 332.672C707.099 332.554 701.117 333.289 695.329 334.858C692.348 335.727 689.15 336.249 686.216 337.331L677.192 341.511L677.193 341.507C671.17 344.568 665.391 348.085 659.909 352.032C654.246 356.792 648.831 361.847 643.702 367.171C632.869 378.553 623.245 391.022 614.972 404.379C606.253 418.264 598.489 432.721 591.727 447.656C588.337 454.769 585.05 462.704 581.928 470.77C578.805 478.842 576.402 486.388 573.653 494.151C568.389 509.93 562.368 525.135 558.308 540.012C554.248 554.89 549.633 570.033 545.611 583.931C541.589 597.83 539.035 611.386 535.439 623.505C529.019 647.827 524.532 669.043 521.053 683.568L515.555 706.523L473.765 696.514C473.765 696.514 475.739 688.27 479.71 673.764C483.681 659.258 488.148 638.534 496.433 613.468C500.212 600.996 503.887 587.315 508.584 573.081C513.282 558.848 518.768 544.213 524.156 528.758C529.544 513.304 536.496 497.929 542.762 482.09C545.687 475.259 548.286 468.551 551.348 461.556C551.932 459.12 552.538 456.591 553.751 454.01C555.433 446.985 558.399 439.569 560.799 431.623C563.199 423.677 565.449 415.101 567.865 406.266C570.276 397.433 572.174 388.277 574.396 379.001C575.495 374.412 576.64 369.632 577.27 364.926C577.9 360.225 578.952 355.423 579.489 350.695L579.482 350.703C580.724 341.354 581.324 331.931 581.281 322.501C581.248 313.447 580.289 304.417 578.423 295.559C577.536 291.423 576.398 287.345 575.005 283.349C573.608 279.494 571.881 275.767 569.848 272.203L566.737 267.396C565.602 265.935 564.209 264.711 563.03 263.436C560.576 260.872 557.767 258.665 554.693 256.882C551.836 255.283 548.845 253.937 545.75 252.861L537.13 250.797C534.527 250.208 531.863 249.939 529.198 249.983L524.823 249.629L524.828 249.63C526.236 255.267 526.678 261.1 526.142 266.887C524.097 289.484 499.369 295.946 480.451 297.156C475.619 297.484 470.634 296.786 465.804 297.512L465.798 297.516C460.594 298.31 456.104 301.6 453.781 306.329C450.679 311.77 448.318 317.601 446.757 323.667C445.568 328.633 444.154 334.538 438.496 336.649C432.838 338.76 431.263 332.936 430.541 328.5C430.092 323.25 426.48 318.811 421.429 317.301C418.026 316.791 414.737 315.703 411.699 314.081C408.547 311.354 406.905 307.269 407.29 303.118C408.008 300.119 408.658 297.404 406.507 294.809C404.356 292.214 398.78 290.677 395.888 286.617C390.95 279.092 397.854 272.619 400.064 264.628L400.06 264.632Z" fill="url(#paint16_linear_1218_1414)"/>
<path d="M552.986 498.852C591.918 431.44 637.999 368.417 690.433 310.881C702.031 283.591 702.279 215.649 661.896 214.886C618.989 218.316 601.471 161.93 635.651 160.854C645.417 163.007 654.315 168.015 661.229 175.239C668.136 182.462 672.745 191.585 674.459 201.432C675.675 208.871 684.267 213.007 689.068 217.019C679.059 172.307 678.416 121.628 651.033 83.3077C648.423 79.8079 644.78 77.2267 640.619 75.9262C616.634 68.582 592.523 43.8062 598.565 17.964C615.226 -16.2602 676.24 21.6942 661.657 66.2751L661.651 66.2746C659.711 72.373 660.68 79.0307 664.286 84.3276C685.235 114.817 686.727 158.877 695.633 192.98C695.61 191.085 712.892 154.599 714.616 150.488C719.318 139.299 711.39 126.367 715.015 115.196C720.146 95.0895 749.82 69.3468 765.606 93.7884C777.827 120.078 750.472 132.592 732.385 145.835C713.917 161.622 709.179 187.859 698.029 208.487C702.092 236.776 709.452 265.578 705.814 294.257L705.82 294.251C733.756 266.185 763.757 240.251 795.578 216.676C798.035 204.062 800.837 185.767 793.318 173.318C746.123 88.405 882.301 85.8437 822.549 169.392C805.067 185.968 811.003 188.53 805.69 209.038C827.695 190.778 861.272 181.423 879.088 158.55C891.7 131.666 924.243 109.154 953.514 118.42C988.596 136.508 958.099 175.966 928.594 177.916C910.182 183.083 890.699 170.932 873.256 179.049C838.976 197.509 806.478 219.096 776.179 243.548C783.349 244.963 790.616 245.805 797.916 246.063C802.828 246.142 807.618 244.576 811.524 241.599C830.574 227.249 867.175 213.202 885.491 228.876C910.987 263.842 851.054 288.371 826.192 265.957C809.831 250.196 786.272 256.397 765.783 252.136L765.789 252.13C721.488 289.188 681.356 330.959 646.095 376.7C676.863 355.614 726.965 359.728 741.285 320.387C757.61 225.459 854.535 293.058 752.795 329.854C745.709 332.226 742.543 339.528 737.391 344.384L737.385 344.384C772.739 337.812 808.873 336.485 844.613 340.449C858.222 333.261 875.388 325.074 877.468 308.021C881.322 284.148 894.701 262.869 914.536 249.047C959.796 218.859 988.019 277.18 924.806 306.297C901.865 316.709 879.48 325.264 860.531 342.352L860.525 342.352C886.686 347.043 912.303 354.38 936.985 364.245C969.293 374.068 1014.31 344.277 1034.27 385.079C1036.16 391.347 1035.52 398.104 1032.49 403.907C1029.46 409.705 1024.28 414.094 1018.06 416.129C980.858 427.639 957.131 388.694 929.766 371.239C889.926 355.203 847.346 347.057 804.399 347.251C815.005 352.711 826.814 360.569 838.51 365.334C863.033 373.476 897.717 374.062 908.182 402.443L908.176 402.443C910.135 409.26 908.468 416.606 903.753 421.911C899.038 427.215 891.941 429.74 884.934 428.593C807.721 402.148 846.943 307.373 679.521 371.877C689.001 375.078 699.613 382.101 710.586 380.856C815.427 370.676 781.505 486.741 717.704 416.745C691.991 382.662 669.637 367.963 631.132 395.631C592.658 446.858 548.057 515.251 533.319 580.087C524.593 618.478 516.321 693.909 516.321 693.909L508.98 643.739C508.974 643.745 518.484 561.228 537.717 526.75C537.635 525.809 547.529 507.842 552.984 498.843L552.986 498.852Z" fill="url(#paint17_linear_1218_1414)"/>
<path d="M451.891 593.642C411.674 551.358 367.019 513.528 318.698 480.812C305.451 462.963 293.331 413.494 322.626 405.843C354.496 400.803 357.355 356.633 332.258 361.855C325.519 365.14 319.914 370.353 316.145 376.833C312.381 383.31 310.626 390.768 311.107 398.245C311.528 403.88 305.994 408.404 303.2 412.171C302.636 377.829 294.2 340.784 307.422 308.047C308.709 305.038 310.91 302.517 313.714 300.838C329.902 291.271 343.119 268.98 334.176 251.209C316.02 229.196 278.226 267.576 296.686 297.502L296.691 297.5C299.176 301.603 299.64 306.625 297.943 311.119C288.034 337.019 294.689 369.389 294.191 395.807C293.875 394.422 274.87 370.869 272.891 368.177C267.498 360.849 271.004 350.032 266.399 342.528C259.127 328.777 232.979 315.232 225.769 335.817C221.483 357.123 243.616 361.435 259.125 367.908C275.356 376.168 283.42 394.455 295.17 407.528C297.18 428.857 296.878 451.14 304.568 471.4L304.562 471.397C279.273 455.853 252.853 442.225 225.521 430.637C221.514 421.876 216.257 409.036 219.549 398.643C239.021 328.471 139.333 350.533 197.558 400.919C213.21 409.926 209.335 412.837 216.81 426.848C197.565 417.407 171.453 416.491 154.451 402.952C140.535 385.577 112.864 374.89 93.1612 386.786C70.7739 406.132 99.932 429.527 121.776 425.764C136.102 426.294 148.165 414.015 162.302 416.866C190.527 424.295 218.003 434.316 244.38 446.811C239.403 449.102 234.255 450.992 228.981 452.463C225.416 453.384 221.649 453.084 218.28 451.602C201.876 444.491 172.735 440.686 162.141 455.327C149.706 485.288 197.692 492.632 211.871 471.93C221.024 457.569 239.283 457.948 253.465 451.243L253.459 451.24C292.255 470.461 328.841 493.848 362.574 520.986C336.447 511.026 300.659 522.828 283.31 496.675C254.733 430.366 195.979 496.66 276.586 505.596C282.167 506.08 285.757 510.845 290.365 513.479L290.369 513.477C263.451 514.9 236.885 520.283 211.537 529.451C200.356 526.605 186.408 523.655 181.895 511.593C174.892 494.873 161.403 481.717 144.519 475.13C106.232 461.084 95.9133 508.544 147.095 518.655C165.643 522.212 183.459 524.512 200.271 533.636L200.275 533.634C182.035 541.65 164.656 551.498 148.403 563.024C126.584 575.86 88.5443 562.06 81.1648 595.302C80.8934 600.2 82.5465 605.013 85.774 608.709C89.0002 612.402 93.5495 614.69 98.4382 615.08C127.57 616.931 138.017 584.381 154.892 566.852C181.107 548.165 210.706 534.747 242.037 527.342C235.267 533.185 228.043 540.986 220.356 546.514C203.916 556.756 178.743 563.278 176.104 585.799L176.109 585.798C175.879 591.11 178.385 596.171 182.753 599.208C187.121 602.245 192.737 602.838 197.641 600.771C249.263 567.931 204.026 505.757 337.368 523.345C331.022 527.344 324.522 534.326 316.307 535.347C238.117 546.351 283.232 624.971 317.427 562.752C330.176 533.396 343.883 518.756 376.805 532.153C413.844 562.723 458.364 604.727 480.497 649.386C493.602 675.829 512.885 729.346 512.885 729.346L509.418 691.495C509.424 691.498 487.994 633.036 467.92 611.29C467.814 610.59 457.447 599.235 451.89 593.636L451.891 593.642Z" fill="url(#paint18_linear_1218_1414)"/>
<path d="M677.892 503.449C677.892 478.675 661.406 457.77 638.81 451.05C650.035 430.322 646.91 403.888 629.393 386.366C611.875 368.849 585.435 365.724 564.708 376.948C557.988 354.359 537.09 337.873 512.316 337.873C487.543 337.873 466.638 354.359 459.918 376.954C439.19 365.73 412.755 368.855 395.233 386.372C377.716 403.889 374.591 430.33 385.816 451.056C363.22 457.776 346.734 478.675 346.734 503.455C346.734 528.228 363.22 549.133 385.816 555.853C374.591 576.581 377.716 603.016 395.233 620.538C412.75 638.055 439.191 641.18 459.918 629.955C464.337 644.793 474.951 656.89 488.696 663.518V687.346H357.11V749.632H375.341L396.038 967.632H628.6L649.297 749.632H667.529V687.346H535.936V663.518C549.688 656.895 560.296 644.799 564.715 629.943C585.443 641.167 611.877 638.042 629.399 620.525C646.916 603.008 650.041 576.567 638.817 555.841C661.406 549.121 677.898 528.222 677.898 503.449H677.892ZM512.313 550.483C486.337 550.483 465.279 529.425 465.279 503.449C465.279 477.472 486.337 456.414 512.313 456.414C538.29 456.414 559.348 477.472 559.348 503.449C559.348 529.419 538.29 550.483 512.313 550.483Z" fill="#FFBD06"/>
<defs>
<linearGradient id="paint0_linear_1218_1414" x1="896.216" y1="583.158" x2="926.402" y2="579.168" gradientUnits="userSpaceOnUse">
<stop stop-color="#FFBD06"/>
<stop offset="1" stop-color="#E2CFFA"/>
</linearGradient>
<linearGradient id="paint1_linear_1218_1414" x1="902.293" y1="596.402" x2="908.315" y2="593.685" gradientUnits="userSpaceOnUse">
<stop stop-color="#FFBD06"/>
<stop offset="1" stop-color="#E2CFFA"/>
</linearGradient>
<linearGradient id="paint2_linear_1218_1414" x1="901.144" y1="585.388" x2="906.664" y2="583.029" gradientUnits="userSpaceOnUse">
<stop stop-color="#FFBD06"/>
<stop offset="1" stop-color="#E2CFFA"/>
</linearGradient>
<linearGradient id="paint3_linear_1218_1414" x1="899.026" y1="573.62" x2="905.049" y2="570.903" gradientUnits="userSpaceOnUse">
<stop stop-color="#FFBD06"/>
<stop offset="1" stop-color="#E2CFFA"/>
</linearGradient>
<linearGradient id="paint4_linear_1218_1414" x1="919.649" y1="593.213" x2="925.468" y2="590.67" gradientUnits="userSpaceOnUse">
<stop stop-color="#FFBD06"/>
<stop offset="1" stop-color="#E2CFFA"/>
</linearGradient>
<linearGradient id="paint5_linear_1218_1414" x1="912.663" y1="604.479" x2="918.484" y2="601.934" gradientUnits="userSpaceOnUse">
<stop stop-color="#FFBD06"/>
<stop offset="1" stop-color="#E2CFFA"/>
</linearGradient>
<linearGradient id="paint6_linear_1218_1414" x1="919.176" y1="581.666" x2="924.838" y2="579.166" gradientUnits="userSpaceOnUse">
<stop stop-color="#FFBD06"/>
<stop offset="1" stop-color="#E2CFFA"/>
</linearGradient>
<linearGradient id="paint7_linear_1218_1414" x1="918.178" y1="570.147" x2="923.999" y2="567.602" gradientUnits="userSpaceOnUse">
<stop stop-color="#FFBD06"/>
<stop offset="1" stop-color="#E2CFFA"/>
</linearGradient>
<linearGradient id="paint8_linear_1218_1414" x1="386.18" y1="323.243" x2="405.219" y2="319.606" gradientUnits="userSpaceOnUse">
<stop stop-color="#FFBD06"/>
<stop offset="1" stop-color="#E2CFFA"/>
</linearGradient>
<linearGradient id="paint9_linear_1218_1414" x1="382.067" y1="329.467" x2="385.376" y2="328.039" gradientUnits="userSpaceOnUse">
<stop stop-color="#FFBD06"/>
<stop offset="1" stop-color="#E2CFFA"/>
</linearGradient>
<linearGradient id="paint10_linear_1218_1414" x1="386.269" y1="324.431" x2="389.567" y2="322.989" gradientUnits="userSpaceOnUse">
<stop stop-color="#FFBD06"/>
<stop offset="1" stop-color="#E2CFFA"/>
</linearGradient>
<linearGradient id="paint11_linear_1218_1414" x1="390.516" y1="319.629" x2="394.063" y2="318.159" gradientUnits="userSpaceOnUse">
<stop stop-color="#FFBD06"/>
<stop offset="1" stop-color="#E2CFFA"/>
</linearGradient>
<linearGradient id="paint12_linear_1218_1414" x1="374.661" y1="322.637" x2="377.938" y2="321.188" gradientUnits="userSpaceOnUse">
<stop stop-color="#FFBD06"/>
<stop offset="1" stop-color="#E2CFFA"/>
</linearGradient>
<linearGradient id="paint13_linear_1218_1414" x1="374.758" y1="330.235" x2="378.002" y2="328.843" gradientUnits="userSpaceOnUse">
<stop stop-color="#FFBD06"/>
<stop offset="1" stop-color="#E2CFFA"/>
</linearGradient>
<linearGradient id="paint14_linear_1218_1414" x1="378.379" y1="317.151" x2="381.634" y2="315.714" gradientUnits="userSpaceOnUse">
<stop stop-color="#FFBD06"/>
<stop offset="1" stop-color="#E2CFFA"/>
</linearGradient>
<linearGradient id="paint15_linear_1218_1414" x1="382.349" y1="311.836" x2="385.668" y2="310.397" gradientUnits="userSpaceOnUse">
<stop stop-color="#FFBD06"/>
<stop offset="1" stop-color="#E2CFFA"/>
</linearGradient>
<linearGradient id="paint16_linear_1218_1414" x1="523.006" y1="649.419" x2="896.916" y2="427.574" gradientUnits="userSpaceOnUse">
<stop stop-color="#FFBD06"/>
<stop offset="1" stop-color="#E2CFFA"/>
</linearGradient>
<linearGradient id="paint17_linear_1218_1414" x1="729.189" y1="352.237" x2="587.205" y2="84.1769" gradientUnits="userSpaceOnUse">
<stop stop-color="#FFBD06"/>
<stop offset="1" stop-color="#E2CFFA"/>
</linearGradient>
<linearGradient id="paint18_linear_1218_1414" x1="297.722" y1="517.76" x2="354.089" y2="297.465" gradientUnits="userSpaceOnUse">
<stop stop-color="#FFBD06"/>
<stop offset="1" stop-color="#E2CFFA"/>
</linearGradient>
</defs>
</svg>
