<svg xmlns="http://www.w3.org/2000/svg" width="574" height="801" fill="none" viewBox="0 0 574 801"><path fill="url(#a)" fill-opacity=".6" fill-rule="evenodd" d="M228.473 602.351c1.326 5.306 2.661 10.613 3.987 15.919 3.986 6.631 7.973 14.595 10.624 21.225l-1.325-3.982c-3.987-10.612-9.299-22.558-13.285-33.171zm51.816 192.419c-2.661-90.225 0 0 2.643 5.278 5.312-21.226 3.986-72.974 3.986-72.974-2.66 0-5.312 1.325-9.299 2.658 0 5.306 0 13.27-1.326 27.864-1.325-9.288-1.325-21.225-1.325-30.514 26.562-5.307 42.506-27.865 63.756-42.46-2.66 1.325-57.117 31.847-63.756 30.515l1.325-9.288c25.236-3.983 54.459-41.128 61.104-54.398-15.937 2.658-39.847 38.478-61.104 45.109v-14.594c5.313-1.325 38.521-22.558 51.806-34.496 2.66-2.658 5.312-5.307 5.312-6.631-18.597 2.657-42.507 21.225-55.782 35.821v-14.595c15.936-7.964 35.861-15.919 49.145-25.208 1.326-1.324 1.326-3.982 2.661-5.306-29.222 2.657-35.861 22.558-50.472 25.208l1.326-13.271c11.95-7.963 45.159-14.594 51.805-23.882-9.299 0-43.833 7.963-51.805 19.901l1.325-7.964c11.951-10.613 31.882-18.577 47.82-14.595-13.285-10.613-35.861-2.657-47.82 7.964l1.326-5.306c14.611-10.613 37.195-17.253 54.458-13.271-15.936-10.612-39.847-2.657-54.458 7.964l1.326-7.964c15.937-9.288 39.847-15.919 45.16-35.82-15.937 6.63-27.896 19.901-43.833 27.864v-5.306c2.66-1.325 34.534-23.883 34.534-30.515-14.611 7.964-21.249 11.937-33.208 25.208l1.326-9.288c0-2.658 21.249-13.27 25.236-19.901-11.951 0-14.611 9.288-25.236 14.594 1.326-6.63 14.611-23.882 19.923-47.765-3.986 2.657-13.285 21.225-17.271 29.189-1.326-7.964 1.326-33.171-3.987-39.802 2.661 19.901-2.66 25.207 1.326 54.397l-1.326 3.982c1.326-14.595-6.638-42.459-10.624-58.379-1.326 6.631 7.973 49.091 10.624 61.035l-1.326 6.631c-1.325-5.306-18.597-70.314-21.249-75.63 1.326 18.577 13.285 62.361 19.924 79.605v5.307c-3.987-13.271-18.598-57.054-25.236-72.974 3.986 23.883 18.597 61.036 23.909 78.28v7.964c-1.326 0-27.895-70.315-31.881-83.587 3.986 26.533 26.562 72.974 30.548 88.893-1.326 10.613-2.66 21.226-3.986 31.846 0 0-29.222-79.605-33.208-86.243 1.325 13.27 26.562 79.605 33.208 92.875-1.326 3.982-1.326 9.288-1.326 13.27-1.326-1.324-37.194-86.243-39.847-91.55 18.597 62.361 19.923 50.416 38.52 99.504 0 3.983-1.326 9.289-1.326 13.271-17.271-25.208-27.895-72.974-47.819-99.504l11.951 33.171c10.624 26.532 23.909 49.09 35.861 72.973 0 5.306-1.326 11.937-1.326 17.252-18.597-38.477-38.521-84.909-59.771-120.739 3.987 19.901 26.563 68.992 42.507 98.182 7.973 14.594 14.611 26.532 17.271 29.189v13.27l-22.583-37.152c-11.95-22.558-30.548-54.398-49.145-71.649l7.973 13.27s49.145 87.568 63.756 99.504c0 7.964 0 14.595 1.326 22.558-5.312-6.631-7.973-19.901-9.299-26.533-2.66-2.657-5.312-6.631-7.972-10.612 3.986 17.252 9.298 53.072 13.285 57.054-11.951-22.558-42.508 21.226-77.042-38.478 5.312-11.937 10.624-55.72 14.611-98.181-2.661-5.307-6.638-10.613-9.299-17.253-5.312 46.441-5.312 94.198-7.973 110.127l-9.298-13.271c6.638-14.594 3.986-145.947-7.973-179.118-2.661 25.208 2.66 169.83 1.326 171.153-3.987-5.306-9.299-10.613-13.285-17.252 1.326-47.766 5.312-95.532-7.973-147.27-5.312 17.252 5.312 128.693 3.987 140.64-3.987-3.982-7.973-7.964-10.625-13.27-7.973-65.01 1.326-53.072-15.937-134.009 0 7.964 9.299 124.721 9.299 126.046-2.66-2.658-7.973-9.288-10.625-11.937 0-18.577-13.285-107.47-21.249-123.387 0 10.612 15.937 115.432 15.937 116.757-10.624-11.937-18.597-21.225-27.895-31.846-6.639-18.576-6.639-84.909-19.924-116.757 2.66 17.252 14.611 111.451 14.611 111.451l-6.638-7.964c-3.986-21.225-9.299-71.649-19.923-99.504 1.326 21.225 11.95 78.28 15.937 95.531l-5.313-6.63c-2.66-21.226-17.271-78.281-26.562-99.505 0 9.289 19.923 90.225 22.583 96.857l-5.312-6.631c-5.313-14.595-22.583-66.342-29.222-71.649 5.312 19.901 14.61 54.398 26.562 70.315 0 0-3.986-3.982-3.986-5.306-14.611-33.171-26.563-34.496-35.861-58.379-3.987 11.937 17.271 37.152 22.583 46.441-11.95-6.631-37.194-19.901-43.833-18.577 22.583 21.225 51.805 30.514 59.77 37.153-15.937 1.324-25.236-9.289-45.16 1.324 9.3 5.306 46.493 1.325 49.146 3.982l7.973 7.964c-26.562-5.306-38.52-3.982-63.757-2.657 5.313 7.963 57.118 5.306 67.743 7.963l3.987 3.982c-25.236 3.982-55.783-1.324-78.368 2.658 21.249 17.252 66.416 6.631 86.34 5.306l6.638 7.964c-25.236-1.324-65.083 9.288-78.368 31.846 21.25-17.252 57.118-26.533 83.68-26.533l3.987 6.631c-22.583-3.982-59.77 3.982-70.393 25.208 18.597-15.919 51.805-22.558 75.714-19.901l6.639 6.631c-17.272-6.631-69.07 10.613-82.354 18.576 10.625 3.982 69.069-13.27 86.34-13.27l10.624 13.27c-18.597 6.631-58.444-6.63-92.978 13.271 7.972 3.982 86.339-6.631 96.964-7.964l11.951 14.594c-30.549-5.306-74.382-6.63-100.951 3.982 6.638 5.307 95.638 3.983 104.937 1.325l11.95 15.919c-30.548 6.631-98.29-10.613-115.561-3.982 33.208 17.252 96.964 22.558 120.874 11.937l7.972 10.613c-6.638 5.306-96.964 11.937-107.59 13.27 42.507-1.325 74.382 13.27 116.889-1.325 31.882 55.72 66.608 7.422 82.546 39.259 1.128 1.86 3.788-64.482 1.128 1.86l13.283 26.524zm82.336-424.6c26.563 2.657 139.472-41.128 197.916-37.153-25.236 19.901-146.11 43.784-201.893 49.091l-2.66 10.612c41.173-1.324 135.485-18.576 185.955-25.208C512.721 387.414 390.52 405.99 352 405.99l-5.313 15.919c66.416-11.937 126.187-17.252 191.268-15.919 1.326 6.631-174.006 25.208-193.93 25.208l-2.66 10.613c45.159 0 78.368-27.865 118.215 30.514-39.847-23.883-42.507-21.225-119.548-22.558l-3.987 15.919c42.507-17.252 62.43-1.324 81.028 23.883-27.896-19.901-45.16-27.865-83.681-15.919-6.638 18.576-13.285 47.766-19.923 82.262h-5.303c5.312-33.171 13.285-67.667 21.249-100.838-9.299 3.982-35.861 2.657-62.43-2.658 2.66-2.657 5.312-6.631 7.972-9.288 18.598 1.324 35.861 1.324 57.118 5.306 1.326-3.982 2.66-5.306 2.66-11.937-15.936-3.982-31.881-10.613-46.492-15.919 2.66-5.306 5.312-11.937 7.973-17.252 17.271 11.937 31.881 21.225 41.173 25.207l6.638-19.901c-14.611-1.324-29.222-6.63-45.159-15.919l2.66-7.963-6.638 5.306c-3.987-3.982-9.299-6.631-13.285-10.613 2.66-3.982 3.986-9.288 6.638-13.27-5.312 2.658-9.299 5.306-13.285 7.964-2.66-1.324-3.986-2.658-5.312-3.982 5.312-5.307 7.973-10.613 10.624-15.919l1.326-1.325c25.236 18.577 51.805 38.478 65.083 46.441l6.639-22.558c-15.937-9.288-51.805-27.864-85.005-49.09 2.661-3.982 3.987-9.289 5.313-13.271 33.208 21.226 67.742 45.109 83.68 53.073 0-3.982 1.326-6.631 1.326-10.613-15.937-6.631-50.472-26.533-82.354-53.072v-1.325l-1.326 1.325 2.661-3.982-5.313 1.324c-10.624-7.964-21.249-17.252-29.222-27.864 1.326-2.658 1.326-6.631 1.326-10.613l1.326-9.288-6.638 6.63c-1.326 1.325-2.661 2.658-3.987 5.307-2.66-3.982-5.312-7.964-7.972-11.937 1.325-3.982 3.986-7.964 5.312-11.938 51.805 35.821 99.615 88.894 130.173 106.145l3.986-15.919c-15.937-19.901-91.652-68.992-131.499-95.531l2.66-7.964c45.16 15.919 104.937 62.36 131.5 96.856 2.66-7.964 5.312-15.919 6.638-23.883-38.521-27.864-116.888-83.586-128.838-132.675 22.583 15.919 98.292 95.532 132.824 124.721 0-7.964 2.66-10.613 3.986-17.252-29.222-39.803-79.694-67.667-124.86-137.982 59.771 34.496 107.59 112.776 127.513 130.027 1.326-5.306 3.987-11.937 5.312-17.252-13.285-5.306-91.652-118.082-94.302-152.576 17.271 19.901 95.638 144.622 98.291 144.622 1.326-6.631 5.312-13.27 6.638-21.225-29.222-39.803-62.43-78.28-74.382-127.371 15.937 11.937 67.743 110.126 77.042 120.739 2.66-5.306 6.638-10.613 6.638-17.252-27.896-58.379-33.208-43.784-57.118-120.74 3.987 7.965 59.771 110.127 61.104 111.452 2.66-3.982 5.312-11.937 7.973-15.919-10.625-14.595-45.16-95.532-43.833-112.776 6.638 9.288 45.159 104.819 46.492 104.819 6.639-13.27 13.285-26.533 19.924-39.802-2.661-18.577-42.507-74.299-42.507-107.47 6.638 15.92 45.159 100.838 45.159 100.838l5.313-9.288c-6.639-19.901-29.222-65.01-31.882-92.875 11.951 18.577 30.549 70.315 34.535 87.568l3.986-7.964C450.287 76.955 438.328 21.233 438.328 0c5.312 6.63 25.236 84.91 25.236 91.55l3.986-7.964c-1.325-15.919-7.972-66.342-2.66-74.299 5.312 19.902 13.285 53.073 5.312 71.649 0 0 2.661-5.306 3.987-6.63 0-34.497 14.611-41.128 14.611-65.011 10.624 7.964-3.987 38.477-3.987 47.765 10.625-9.288 37.194-31.845 47.819-35.82-18.597 29.189-53.131 50.415-59.77 59.703 22.583-6.63 27.895-19.9 61.103-19.9-9.298 9.288-61.103 22.557-63.756 26.532l-6.638 10.613c33.208-17.252 50.472-21.225 86.339-31.846-2.66 9.288-74.381 31.846-87.666 38.477l-3.986 5.307c37.194-9.289 75.714-26.533 108.914-34.496-18.598 23.883-85.005 35.821-112.903 45.109l-5.312 9.288c34.535-13.27 92.979-22.558 124.86-10.613-38.52-5.306-92.978 5.307-128.837 17.253l-2.66 6.631c29.222-13.271 83.68-23.883 111.575-10.613-34.534-5.306-83.68 5.306-115.561 18.576l-3.987 9.289c19.923-14.595 98.291-23.883 122.201-23.883-11.951 7.964-100.951 21.225-124.861 29.189l-7.972 15.919c30.548-2.657 75.714-31.846 134.158-31.846-7.972 6.631-119.547 34.496-136.811 38.478l-6.638 17.252c38.52-17.252 98.291-39.802 139.471-43.784-5.312 7.964-127.513 49.091-142.124 51.747l-6.639 17.253c46.493-7.964 127.513-54.398 154.083-55.72-33.208 29.189-116.889 63.685-156.736 66.342l-5.312 11.937c13.285 1.324 139.471-35.821 155.409-38.478-45.16 14.595-114.226 53.072-159.395 53.072l-5.312 15.919c35.861-13.27 127.513-35.82 156.735-42.459-25.236 27.865-116.888 50.416-159.395 50.416l-6.638 22.558c42.507-3.982 74.382-29.19 162.045-34.496-10.624 7.964-126.186 43.784-164.707 43.784l-5.312 15.919c39.847-11.937 128.837-37.153 181.969-37.153-53.132 22.558-142.124 43.785-185.955 51.748l-3.987 15.919zm17.272 144.622c-3.987 29.189-19.923 65.01-34.535 94.197l-5.312-3.982c13.285-34.496 33.208-76.955 39.847-90.225zm-35.861 96.856c-1.326 2.658-2.66 6.631-3.986 9.288-2.661-1.324-3.987-2.657-5.313-3.982 1.326-2.657 1.326-5.306 2.661-6.63zm-5.312 10.613-2.661 6.631h-5.312c0-1.325 0-2.658 1.326-3.982s1.326-2.658 2.66-3.983l3.987 1.325zm-6.639 14.594v1.325c-1.325 0-2.66 1.324-2.66 1.324l2.66-2.657zm3.987 6.631 2.66-2.657c3.987-25.208 77.042-131.353 81.028-136.659-7.973 19.901-73.056 131.352-73.056 132.675 5.313-3.982 11.951-6.631 17.272-10.613 18.597-37.152 35.861-75.63 67.743-111.451-2.661 13.27-58.444 98.182-61.104 107.47 3.986-2.658 9.299-3.982 13.285-7.964 33.208-49.091 21.249-41.128 67.743-99.504-3.987 5.306-59.771 92.875-59.771 95.531 3.987-2.657 9.299-6.631 13.285-7.964 7.973-13.27 54.458-79.605 66.416-90.225-3.986 9.289-59.77 86.244-59.77 86.244 11.95-5.307 22.583-11.937 33.208-17.252 13.285-13.271 41.173-65.011 63.756-86.244-9.298 13.27-57.117 83.587-57.117 83.587l7.972-5.307c11.951-15.919 37.195-53.072 55.783-72.973-9.299 17.252-41.174 58.379-50.472 70.315l5.312-2.658c10.625-15.919 45.159-57.054 61.104-71.648-3.987 6.63-51.805 65.01-57.118 68.992l6.638-2.658c10.625-10.613 45.16-46.441 51.805-49.091-11.95 14.595-33.208 39.803-49.145 47.766 0 0 5.312-1.324 6.638-2.657 23.91-22.558 33.208-19.902 50.472-35.821-2.66 9.288-29.222 23.882-35.861 29.189 10.625-1.324 34.535-5.306 39.847-3.982-26.562 11.937-51.805 11.937-59.77 14.595 10.624 5.306 22.583-1.325 31.881 11.937-9.298 1.324-34.534-9.289-37.194-7.964l-10.624 3.982c22.583 2.658 31.881 5.306 49.145 13.27-6.638 3.982-43.833-9.288-53.131-9.288l-5.313 1.324c17.272 9.289 41.174 11.937 57.118 21.226-22.583 7.963-51.805-10.613-65.083-15.919l-9.299 3.982c19.923 5.306 45.16 22.557 45.16 42.459-7.973-18.577-30.549-33.171-50.472-38.478l-6.639 2.658c18.598 2.657 42.507 17.252 42.507 37.152-6.638-17.252-29.222-30.514-47.819-34.496l-7.973 3.982c15.937 0 46.493 23.883 53.132 33.171-9.299 1.325-45.16-25.207-58.444-30.514l-13.285 7.964c11.95 10.613 45.159 9.288 63.756 31.846-7.972 1.324-61.103-23.883-69.069-27.865l-14.611 7.964c23.91 3.982 58.444 11.937 73.055 26.533-7.972 2.658-71.728-18.576-78.367-22.558l-14.611 9.289c19.923 11.937 75.714 14.594 86.339 23.882-31.881 5.307-81.027-5.306-94.302-18.576l-10.625 5.306c3.986 5.307 67.743 31.846 74.382 35.821-27.896-9.288-54.458-6.631-77.042-22.558 1.326-2.657 2.661-6.631 5.313-9.288h-6.639c-9.298 1.324-31.881 23.883-41.173 33.171 2.66-5.306 6.638-9.288 10.624-13.27 7.973-6.631 25.236-17.252 30.549-25.208zm-124.86-80.936c0 3.982-1.326 6.63-2.661 9.288l2.661 5.306c1.326-5.306 1.326-10.612 0-14.594m-2.661 11.937c-3.986 11.937-6.638 25.208-9.299 38.477l9.299 9.289c1.326-11.937 1.326-22.558 2.661-31.846 0-1.325-1.326-2.658-1.326-3.982l-1.326-11.938zm-33.208-132.675c-19.923 3.982-106.263-21.226-148.77-13.271 21.25 14.595 110.25 22.558 151.423 22.558l3.987 7.964c-30.549 3.982-100.951-2.657-139.472-3.982 23.91 14.595 114.227 18.577 143.449 14.595l3.986 13.27c-49.145-3.982-92.978-2.657-140.797 3.982 0 5.306 130.172 5.306 143.448 2.658l2.66 9.288c-31.881 3.982-59.77-15.919-82.353 35.821 26.562-23.883 27.895-21.225 85.004-29.19l3.986 11.938c-33.208-9.289-45.159 5.306-57.117 27.864 18.597-18.576 30.548-26.533 59.77-21.225 5.313 11.937 10.625 27.864 15.937 47.766l6.638 7.963c-6.638-23.883-13.285-47.765-21.249-70.314 19.924 5.306 79.694-22.558 87.666-37.153-42.506 25.208-61.103 19.901-90.325 31.846-1.326-3.982-2.661-5.306-2.661-10.613 27.896-13.27 51.805-29.189 69.069-49.09v-1.325h1.326v-1.324c10.625-13.27 18.597-29.189 25.236-47.766-19.923 14.595-37.194 33.171-54.458 51.748-18.597 19.901-34.534 35.821-43.833 41.127l-6.638-15.919c17.271-2.657 34.534-19.901 47.819-34.496 14.611-17.252 31.882-41.127 41.173-62.36-1.325 0-1.325 1.324-1.325 1.324h-1.326c-22.583 14.595-65.083 67.667-88.993 87.568l-6.638-17.252c13.285-10.613 82.353-63.685 95.638-92.875-1.326 0-1.326 1.325-2.661 1.325h-1.325c-11.951 7.964-29.222 22.558-39.847 33.171-22.584 19.901-45.16 43.784-55.783 50.415 0-2.657-1.326-3.982-2.66-7.964 34.534-19.901 87.666-78.28 95.638-119.414-39.847 33.171-77.041 94.198-98.291 111.451l-3.987-11.937c11.951-22.558 75.715-79.605 98.292-103.488-37.195 10.613-86.34 68.992-100.951 98.182-2.661-6.631-5.312-13.271-6.638-19.901 19.923-19.902 42.506-45.11 59.77-68.992 9.299-17.253 19.923-33.171 22.583-53.073-30.548 31.846-57.117 79.605-86.339 115.433-1.326-5.306-2.661-7.964-3.987-13.27 22.583-43.784 55.782-75.63 79.694-126.046-41.173 33.171-70.393 104.82-82.353 120.739-2.661-5.306-3.987-10.612-6.639-14.594 10.625-5.307 58.444-107.47 57.118-136.659-10.625 18.576-57.118 130.027-59.771 130.027-1.326-5.306-5.312-10.613-6.638-15.919 18.597-35.821 39.847-71.649 43.833-114.099-10.624 11.937-39.847 98.182-46.492 107.47-1.326-3.982-5.313-7.964-6.639-13.27 15.937-50.416 21.249-39.803 31.882-104.82-2.661 6.631-34.535 95.531-34.535 98.181-2.66-3.982-5.312-10.612-6.638-13.27 5.312-13.27 23.91-83.587 21.249-98.181-3.986 9.288-23.909 91.55-25.236 91.55-5.312-10.613-11.95-19.901-17.271-30.515 0-15.919 23.909-66.342 22.583-92.875-5.313 13.271-25.236 87.569-25.236 87.569l-5.313-6.631c3.987-18.577 17.272-57.054 15.937-80.937-7.972 15.919-15.936 62.361-17.271 75.63l-3.987-5.306c5.313-17.252 10.625-63.685 7.973-82.262-2.66 6.631-10.625 72.974-10.625 78.28l-3.986-5.306c0-13.27 1.326-55.72-3.986-62.36-1.326 15.919-3.987 45.109 2.66 59.703 0 0-2.66-3.982-3.987-5.306-2.66-29.189-13.284-31.846-15.936-53.072-6.639 7.964 6.638 31.846 7.972 41.127-9.298-7.964-30.548-23.883-38.52-25.208 15.937 21.226 43.833 35.821 47.819 42.46-15.937-2.658-21.25-13.271-46.493-9.289 7.973 5.307 47.82 11.937 49.146 14.595l5.312 9.288c-25.236-11.937-38.52-13.27-65.083-18.576 2.66 6.631 57.118 18.576 67.743 22.558l2.66 5.306c-27.895-3.982-57.117-15.919-81.027-18.577 14.611 18.577 65.083 21.226 85.004 26.533l5.313 7.964C65.09 242.813 21.258 240.164 0 253.435c26.563-7.964 67.743-5.307 94.303 2.657l2.66 5.307c-22.582-9.289-62.43-11.938-82.353 1.324 25.236-7.964 62.43-3.982 86.34 3.982l3.986 6.631c-15.937-9.289-74.381-10.613-91.652-7.964 9.299 6.631 75.715 9.288 94.303 11.937l6.638 13.27c-22.583 0-58.444-19.901-100.95-13.27 6.638 5.306 90.325 17.252 102.277 18.577l6.638 13.27c-29.222-10.613-74.382-23.883-104.937-22.558 5.312 6.631 96.965 27.864 107.59 29.189l6.638 14.595c-34.534-2.657-96.965-33.171-116.888-33.171 26.562 21.225 90.326 42.459 119.548 41.128l5.312 9.288c-10.625 1.324-104.937-15.919-116.888-17.252 34.534 7.964 87.666 33.171 120.874 29.189l5.312 11.937c-26.562-6.631-95.638-17.252-118.214-19.901 21.249 19.901 88.992 30.515 120.874 26.533l6.638 18.577c-31.882 1.324-57.118-17.253-122.2-13.271 9.298 5.307 96.964 23.883 124.86 19.901l5.312 13.271c-30.549-6.631-96.965-18.577-136.812-14.595 41.174 15.919 107.59 23.883 140.798 26.533l5.312 13.27zm130.173 156.56v1.324l-6.638 2.658zm-5.312 39.802-1.326 2.658-7.973 5.306 1.326-5.306zm-5.313 37.153c-1.326 7.964 0 6.631-5.312 10.613l-3.986 2.657v-7.964zm-57.117-230.865h-1.326c2.66-2.658 3.986-5.307 6.638-6.631h1.326c-1.326 2.657-3.987 3.982-6.638 6.631m-23.91-10.613c-1.326-2.658-3.986-3.982-5.312-5.306l1.326-1.325c2.66 1.325 5.312 1.325 7.973 2.658l-3.987 3.982zm57.118-22.558c-2.661-1.324-3.987-1.324-6.638-2.658 3.986-6.63 7.972-13.27 11.95-19.901 3.987 2.658 6.638 5.307 10.625 7.964-5.313 5.307-10.625 9.289-15.937 14.595m-22.583-13.27c-1.326 0-2.661-1.325-2.661-1.325 5.312-6.63 11.951-11.937 17.272-17.252l2.66 1.325c-5.312 6.63-11.95 11.937-17.271 17.252m-34.535-30.515s-1.326-1.324-1.326-2.657l11.951-11.937h1.326c-3.987 5.306-7.973 10.612-11.951 14.594m-11.95-17.252c-1.326-1.324-1.326-2.657-2.661-3.982 2.661-2.657 3.987-3.982 5.312-6.631 1.326 1.325 2.661 1.325 5.313 2.658l-7.973 7.964zm43.833 17.252 2.66 1.325c-5.312 5.306-11.95 10.613-17.271 15.919 5.312-5.306 9.298-11.937 14.611-17.252zm13.285-6.63c-1.326-1.325-3.987-2.658-5.313-5.307 3.987-5.306 6.639-10.612 9.299-15.919 3.987 3.982 9.299 6.631 13.285 9.289v1.324c-6.638 2.658-11.95 6.631-17.271 10.613m-33.208-34.496c-1.326-1.325-3.987-3.982-5.313-6.631 1.326-1.325 2.661-3.982 3.987-5.307 2.66 1.325 6.638 3.983 9.299 5.307-2.661 2.657-5.313 5.306-7.973 6.631m19.923-14.595c-5.312-2.658-10.625-6.631-14.611-10.613 2.66-2.657 3.986-6.631 5.312-9.288 6.638 3.982 14.611 7.964 22.583 13.27-3.986 1.324-7.972 3.982-13.284 6.631m-27.896-23.883c-2.66-1.324-3.986-3.982-5.312-6.631 2.661 1.325 5.312 1.325 7.973 2.658l-1.326 1.324-1.326 2.658zm2.661-45.109c-2.661-3.982-5.312-7.964-6.638-13.27 3.986 2.657 7.972 5.306 11.95 7.964zm10.624-9.288c-5.312-3.982-9.298-6.631-13.285-9.289 6.639 0 11.951 1.325 18.598 3.982z" clip-rule="evenodd"/><path fill="url(#b)" fill-rule="evenodd" d="M339.88 615.679c-1.236 4.948-2.48 9.897-3.716 14.845-3.716 6.184-7.432 13.611-9.903 19.795l1.236-3.714c3.715-9.897 8.667-21.037 12.383-30.934zm-48.298 179.446c2.48-84.142 0 0-2.464 4.922-4.951-19.794-3.715-68.054-3.715-68.054 2.479 0 4.951 1.236 8.667 2.479 0 4.948 0 12.375 1.236 25.986 1.236-8.662 1.236-19.795 1.236-28.457-24.759-4.949-39.621-25.987-59.429-39.597 2.48 1.235 53.241 29.699 59.429 28.457l-1.236-8.662c-23.523-3.714-50.761-38.355-56.956-50.73 14.855 2.478 37.142 35.883 56.956 42.068v-13.611c-4.952-1.235-35.906-21.037-48.288-32.17-2.48-2.479-4.952-4.949-4.952-6.184 17.335 2.478 39.621 19.794 51.995 33.406v-13.611c-14.855-7.427-33.426-14.846-45.809-23.508-1.236-1.236-1.236-3.714-2.48-4.949 27.239 2.478 33.427 21.037 47.046 23.508l-1.236-12.375c-11.139-7.427-42.094-13.611-48.288-22.273 8.667 0 40.857 7.427 48.288 18.559l-1.236-7.426c-11.139-9.898-29.717-17.325-44.573-13.611 12.383-9.898 33.427-2.479 44.573 7.427l-1.236-4.949c-13.619-9.897-34.669-16.089-50.761-12.376 14.855-9.897 37.142-2.478 50.761 7.427l-1.236-7.427c-14.854-8.662-37.142-14.845-42.093-33.406 14.854 6.184 26.001 18.56 40.857 25.986v-4.948c-2.48-1.235-32.19-22.273-32.19-28.457 13.619 7.426 19.806 11.132 30.954 23.508l-1.236-8.662c0-2.479-19.807-12.376-23.523-18.56 11.139 0 13.619 8.663 23.523 13.611-1.236-6.184-13.619-22.273-18.571-44.545 3.716 2.478 12.383 19.794 16.099 27.221 1.236-7.427-1.236-30.935 3.716-37.119-2.48 18.559 2.48 23.508-1.236 50.73l1.236 3.714c-1.236-13.611 6.187-39.597 9.903-54.444 1.236 6.184-7.431 45.782-9.903 56.921l1.236 6.184c1.236-4.949 17.335-65.574 19.806-70.532-1.236 17.325-12.383 58.157-18.571 74.239v4.948c3.716-12.375 17.335-53.207 23.523-68.053-3.716 22.272-17.334 56.92-22.286 73.002v7.427c1.236 0 26.002-65.574 29.717-77.951-3.716 24.744-24.759 68.054-28.474 82.9 1.235 9.897 2.479 19.794 3.715 29.699 0 0 27.239-74.238 30.954-80.429-1.236 12.376-24.759 74.239-30.954 86.614 1.236 3.713 1.236 8.662 1.236 12.375 1.236-1.235 34.669-80.429 37.142-85.378-17.335 58.157-18.571 47.017-35.905 92.796 0 3.714 1.236 8.662 1.236 12.376 16.099-23.509 26.001-68.054 44.572-92.796L331.218 629.3c-9.903 24.744-22.286 45.781-33.426 68.054 0 4.948 1.236 11.132 1.236 16.089 17.334-35.884 35.905-79.185 55.712-112.6-3.715 18.56-24.759 64.341-39.621 91.563-7.431 13.61-13.619 24.744-16.099 27.221v12.376l21.05-34.648c11.14-21.037 28.475-50.73 45.81-66.819l-7.432 12.376s-45.809 81.665-59.428 92.796c0 7.427 0 13.611-1.236 21.037 4.952-6.184 7.431-18.559 8.667-24.744 2.48-2.478 4.952-6.184 7.432-9.897-3.716 16.089-8.668 49.494-12.383 53.207 11.139-21.037 39.621 19.796 71.811-35.883-4.951-11.133-9.903-51.964-13.619-91.563 2.48-4.948 6.188-9.897 8.668-16.089 4.951 43.31 4.951 87.848 7.431 102.702l8.668-12.375c-6.188-13.611-3.716-136.108 7.431-167.043 2.48 23.508-2.48 158.381-1.236 159.614 3.716-4.948 8.668-9.897 12.384-16.089-1.236-44.545-4.952-89.091 7.431-137.341 4.952 16.089-4.952 120.017-3.716 131.159 3.716-3.714 7.432-7.427 9.904-12.376 7.431-60.628-1.236-49.494 14.855-124.975 0 7.427-8.668 116.313-8.668 117.549 2.48-2.479 7.432-8.662 9.903-11.133 0-17.324 12.383-100.224 19.807-115.068 0 9.897-14.855 107.65-14.855 108.886 9.903-11.133 17.335-19.794 26.002-29.699 6.187-17.324 6.187-79.185 18.571-108.887-2.48 16.09-13.62 103.938-13.62 103.938l6.188-7.427c3.716-19.794 8.668-66.818 18.571-92.796-1.236 19.795-11.139 73.003-14.855 89.091l4.952-6.184c2.479-19.794 16.099-73.002 24.759-92.796 0 8.663-18.571 84.143-21.05 90.327l4.951-6.184c4.952-13.61 21.05-61.869 27.239-66.818-4.952 18.559-13.619 50.73-24.76 65.574 0 0 3.716-3.713 3.716-4.948 13.62-30.935 24.76-32.171 33.427-54.443 3.716 11.132-16.099 34.647-21.05 43.309 11.139-6.183 34.669-18.559 40.857-17.324-21.05 19.795-48.288 28.458-55.713 34.648 14.855 1.235 23.523-8.662 42.094 1.235-8.667 4.949-43.336 1.235-45.809 3.714l-7.432 7.427c24.76-4.949 35.906-3.714 59.429-2.478-4.952 7.427-53.24 4.948-63.144 7.427l-3.716 3.713c23.523 3.714 51.996-1.235 73.048 2.478-19.807 16.09-61.908 6.184-80.479 4.949l-6.188 7.427c23.523-1.235 60.665 8.662 73.048 29.699-19.807-16.089-53.24-24.744-77.999-24.744l-3.716 6.184c21.05-3.714 55.713 3.714 65.614 23.508-17.334-14.845-48.288-21.037-70.574-18.559l-6.188 6.184c16.099-6.184 64.38 9.897 76.763 17.324-9.903 3.714-64.38-12.376-80.478-12.376l-9.904 12.376c17.335 6.184 54.477-6.184 86.667 12.376-7.432 3.713-80.478-6.184-90.382-7.427l-11.14 13.61c28.475-4.948 69.333-6.183 94.098 3.714-6.187 4.949-89.146 3.714-97.813 1.235l-11.139 14.846c28.474 6.184 91.618-9.897 107.717-3.714-30.954 16.089-90.383 21.037-112.669 11.133l-7.432 9.897c6.188 4.949 90.383 11.132 100.286 12.376-39.621-1.236-69.332 12.375-108.953-1.236-29.717 51.964-62.086 6.922-76.942 36.613-1.051 1.733-3.531-60.136-1.051 1.733l-12.382 24.736zM214.835 399.15c-24.76 2.478-130.004-38.355-184.48-34.648 23.523 18.559 136.191 40.832 188.187 45.781l2.48 9.897c-38.379-1.235-126.288-17.324-173.332-23.508 27.239 18.559 141.144 35.883 177.049 35.883l4.952 14.846c-61.908-11.132-117.621-16.089-178.283-14.846-1.236 6.184 162.193 23.509 180.764 23.509l2.48 9.897c-42.094 0-73.048-25.986-110.19 28.457 37.142-22.272 39.621-19.794 111.432-21.037l3.716 14.846c-39.621-16.089-58.192-1.235-75.526 22.273 26.002-18.56 42.094-25.986 77.999-14.846 6.188 17.324 12.383 44.546 18.571 76.716h4.943c-4.951-30.935-12.383-63.105-19.806-94.04 8.667 3.714 33.426 2.478 58.192-2.478-2.48-2.479-4.952-6.184-7.432-8.663-17.334 1.236-33.426 1.236-53.24 4.949-1.236-3.714-2.48-4.949-2.48-11.132 14.855-3.714 29.718-9.898 43.337-14.846-2.48-4.949-4.952-11.133-7.432-16.089-16.099 11.132-29.717 19.794-38.378 23.508l-6.188-18.559c13.619-1.235 27.239-6.184 42.094-14.846l-2.48-7.427 6.188 4.949c3.716-3.714 8.667-6.184 12.383-9.898-2.48-3.713-3.716-8.662-6.188-12.375 4.952 2.478 8.668 4.948 12.384 7.427 2.479-1.235 3.715-2.479 4.951-3.714-4.951-4.948-7.431-9.897-9.903-14.846l-1.236-1.235c-23.523 17.324-48.288 35.884-60.665 43.31l-6.187-21.037c14.854-8.662 48.288-25.986 79.233-45.781-2.48-3.714-3.716-8.662-4.951-12.376-30.954 19.795-63.144 42.068-78 49.495 0-3.714-1.236-6.184-1.236-9.898 14.855-6.183 47.046-24.744 76.763-49.494v-1.235l1.236 1.235-2.48-3.714 4.952 1.236c9.903-7.427 19.807-16.09 27.238-25.986-1.236-2.479-1.236-6.184-1.236-9.898l-1.235-8.662 6.187 6.184c1.236 1.235 2.48 2.478 3.716 4.949 2.48-3.714 4.952-7.427 7.432-11.133-1.236-3.713-3.716-7.427-4.952-11.132-48.288 33.406-92.853 82.9-121.336 98.988l-3.716-14.845c14.855-18.56 85.43-64.341 122.572-89.091l-2.479-7.427c-42.094 14.845-97.813 58.156-122.573 90.326-2.48-7.427-4.951-14.845-6.187-22.272 35.905-25.986 108.953-77.952 120.091-123.731-21.05 14.846-91.619 89.091-123.807 116.313 0-7.427-2.48-9.898-3.716-16.09 27.239-37.119 74.284-63.105 116.384-128.679-55.713 32.17-100.285 105.173-118.856 121.261-1.236-4.948-3.716-11.132-4.952-16.089 12.383-4.948 85.43-110.122 87.901-142.29-16.099 18.559-89.146 134.872-91.619 134.872-1.235-6.184-4.951-12.375-6.187-19.794 27.238-37.119 58.192-73.003 69.332-118.784-14.855 11.132-63.144 102.702-71.811 112.599-2.48-4.948-6.188-9.897-6.188-16.089 26.002-54.443 30.954-40.832 53.24-112.599-3.716 7.427-55.713 102.702-56.955 103.937-2.48-3.713-4.952-11.132-7.432-14.846 9.903-13.61 42.094-89.091 40.858-105.173-6.188 8.662-42.094 97.753-43.337 97.753-6.188-12.375-12.383-24.744-18.571-37.119 2.48-17.324 39.621-69.29 39.621-100.224-6.187 14.846-42.094 94.04-42.094 94.04l-4.951-8.663c6.187-18.559 27.238-60.627 29.717-86.613-11.139 17.324-28.475 65.574-32.19 81.665l-3.716-7.427c9.903-17.325 21.05-69.29 21.05-89.091-4.951 6.183-23.523 79.185-23.523 85.377l-3.715-7.426c1.235-14.846 7.431-61.87 2.479-69.29-4.951 18.56-12.383 49.494-4.951 66.818 0 0-2.48-4.948-3.716-6.184 0-32.17-13.62-38.354-13.62-60.627-9.903 7.427 3.717 35.883 3.717 44.545-9.904-8.662-34.67-29.699-44.573-33.406 17.335 27.222 49.524 47.017 55.713 55.679-21.05-6.184-26.002-18.559-56.956-18.559 8.668 8.662 56.956 21.037 59.428 24.744l6.188 9.897c-30.954-16.089-47.046-19.794-80.478-29.699 2.48 8.662 69.332 29.699 81.715 35.883l3.715 4.949c-34.669-8.662-70.574-24.744-101.52-32.17 17.335 22.272 79.234 33.406 105.238 42.068l4.952 8.662C102.173 162.821 47.697 154.16 17.98 165.3c35.905-4.949 86.666 4.948 120.091 16.089l2.48 6.184c-27.239-12.376-78-22.273-104.002-9.898 32.19-4.948 78 4.949 107.717 17.325l3.716 8.662c-18.571-13.611-91.619-22.273-113.905-22.273 11.14 7.427 94.097 19.794 116.384 27.222l7.431 14.845c-28.474-2.478-70.574-29.699-125.05-29.699 7.43 6.184 111.431 32.171 127.523 35.884l6.188 16.089c-35.906-16.089-91.619-37.119-130.003-40.832 4.951 7.427 118.857 45.781 132.476 48.258l6.187 16.09c-43.336-7.427-118.857-50.731-143.622-51.964 30.954 27.222 108.953 59.392 146.095 61.869l4.952 11.133c-12.383 1.235-130.003-33.406-144.859-35.884 42.094 13.611 106.472 49.495 148.574 49.495l4.952 14.846c-33.427-12.376-118.857-33.407-146.095-39.597 23.523 25.986 108.953 47.017 148.574 47.017l6.188 21.037c-39.622-3.714-69.333-27.222-151.045-32.171 9.903 7.427 117.62 40.833 153.526 40.833l4.951 14.846c-37.142-11.133-120.09-34.648-169.616-34.648 49.525 21.037 132.476 40.832 173.332 48.258l3.716 14.846zm-16.099 134.872c3.716 27.222 18.57 60.628 32.19 87.847l4.951-3.713c-12.383-32.171-30.953-71.767-37.142-84.143zm33.426 90.327c1.236 2.478 2.48 6.184 3.716 8.662 2.48-1.235 3.716-2.478 4.952-3.713-1.236-2.479-1.236-4.949-2.48-6.184zm4.952 9.897 2.48 6.184h4.951c0-1.235 0-2.478-1.236-3.714s-1.235-2.478-2.479-3.713l-3.716 1.235zm6.187 13.611v1.235c1.236 0 2.48 1.235 2.48 1.235l-2.48-2.478zm-3.715 6.184-2.48-2.479c-3.716-23.508-71.811-122.497-75.527-127.446 7.432 18.56 68.096 122.498 68.096 123.731-4.952-3.713-11.139-6.184-16.099-9.897-17.335-34.648-33.427-70.532-63.144-103.938 2.48 12.376 54.476 91.563 56.956 100.225-3.716-2.479-8.668-3.714-12.384-7.427-30.953-45.781-19.806-38.355-63.143-92.796 3.715 4.948 55.712 86.613 55.712 89.091-3.715-2.478-8.667-6.184-12.383-7.427-7.431-12.375-50.761-74.238-61.907-84.142 3.716 8.662 55.713 80.429 55.713 80.429-11.139-4.949-21.05-11.133-30.954-16.089-12.383-12.376-38.378-60.628-59.428-80.429 8.667 12.375 53.24 77.951 53.24 77.951l-7.432-4.949c-11.139-14.845-34.669-49.494-51.995-68.053 8.667 16.089 38.378 54.443 47.046 65.574l-4.952-2.478c-9.903-14.846-42.094-53.208-56.956-66.819 3.716 6.184 48.289 60.628 53.24 64.341l-6.187-2.478c-9.903-9.898-42.094-43.31-48.288-45.781 11.139 13.61 30.953 37.119 45.809 44.545 0 0-4.952-1.235-6.188-2.478-22.286-21.037-30.954-18.56-47.046-33.406 2.48 8.662 27.239 22.272 33.427 27.221-9.903-1.235-32.19-4.948-37.142-3.713 24.76 11.132 48.288 11.132 55.713 13.61-9.903 4.949-21.05-1.235-29.717 11.133 8.667 1.235 32.19-8.662 34.669-7.427l9.903 3.713c-21.05 2.479-29.717 4.949-45.81 12.376 6.188 3.714 40.858-8.662 49.526-8.662l4.951 1.235c-16.099 8.662-38.378 11.132-53.24 19.794 21.05 7.427 48.288-9.897 60.665-14.845l8.667 3.713c-18.57 4.949-42.093 21.037-42.093 39.597 7.431-17.324 28.474-30.935 47.045-35.884l6.188 2.479c-17.335 2.478-39.621 16.089-39.621 34.648 6.187-16.09 27.238-28.458 44.573-32.171l7.431 3.714c-14.855 0-43.336 22.273-49.525 30.935 8.668 1.235 42.094-23.509 54.477-28.458l12.383 7.427c-11.139 9.898-42.094 8.663-59.428 29.699 7.431 1.236 56.955-22.272 64.38-25.986l13.619 7.427c-22.286 3.714-54.476 11.133-68.096 24.744 7.432 2.479 66.86-17.324 73.048-21.037l13.619 8.663c-18.571 11.132-70.575 13.61-80.478 22.272 29.717 4.949 75.526-4.948 87.901-17.324l9.903 4.949c-3.716 4.948-63.144 29.699-69.332 33.406 26.002-8.662 50.761-6.184 71.811-21.037-1.236-2.479-2.48-6.184-4.952-8.663h6.188c8.668 1.236 29.717 22.273 38.378 30.935-2.479-4.948-6.187-8.662-9.903-12.375-7.431-6.184-23.523-16.09-28.474-23.509zM355.97 578.56c0 3.714 1.236 6.184 2.48 8.663l-2.48 4.948c-1.236-4.948-1.236-9.897 0-13.611m2.48 11.133c3.715 11.132 6.187 23.508 8.667 35.883l-8.667 8.663c-1.236-11.133-1.236-21.038-2.48-29.7 0-1.235 1.236-2.478 1.236-3.713l1.235-11.133zm30.953-123.731c18.571 3.714 99.05-19.794 138.671-12.375-19.807 13.61-102.765 21.037-141.144 21.037l-3.715 7.427c28.474 3.713 94.097-2.479 130.003-3.714-22.287 13.611-106.472 17.324-133.711 13.611l-3.715 12.375c45.809-3.713 86.666-2.478 131.239 3.714 0 4.949-121.336 4.949-133.71 2.478l-2.48 8.663c29.717 3.713 55.713-14.846 76.763 33.406-24.759-22.273-26.002-19.795-79.234-27.222l-3.716 11.132c30.954-8.662 42.094 4.949 53.241 25.986-17.335-17.324-28.475-24.744-55.713-19.794-4.952 11.132-9.904 25.986-14.855 44.546l-6.188 7.426c6.188-22.272 12.383-44.545 19.807-65.574-18.571 4.949-74.284-21.037-81.715-34.648 39.621 23.509 56.955 18.56 84.194 29.699 1.236-3.713 2.48-4.948 2.48-9.897-26.002-12.375-48.289-27.221-64.381-45.781v-1.235h-1.236v-1.235c-9.903-12.376-17.334-27.222-23.522-44.546 18.57 13.611 34.669 30.935 50.761 48.259 17.334 18.559 32.19 33.406 40.857 38.355l6.188-14.846c-16.099-2.478-32.19-18.559-44.573-32.17-13.619-16.09-29.717-38.355-38.379-58.157 1.236 0 1.236 1.235 1.236 1.235h1.236c21.05 13.611 60.665 63.105 82.952 81.665l6.187-16.089c-12.383-9.897-76.763-59.392-89.146-86.614 1.236 0 1.236 1.235 2.48 1.235h1.236c11.139 7.427 27.238 21.038 37.142 30.935 21.05 18.56 42.094 40.833 51.996 47.017 0-2.478 1.236-3.714 2.48-7.427-32.191-18.559-81.715-73.003-89.146-111.364 37.142 30.935 71.811 87.847 91.618 103.938l3.716-11.133c-11.139-21.037-70.575-74.238-91.618-96.511 34.669 9.897 80.478 64.341 94.097 91.562 2.48-6.183 4.952-12.375 6.188-18.559-18.571-18.559-39.621-42.068-55.713-64.341-8.668-16.089-18.571-30.934-21.05-49.494 28.474 29.699 53.24 74.238 80.478 107.651 1.236-4.949 2.48-7.427 3.716-12.376-21.05-40.832-51.995-70.531-74.284-117.548 38.378 30.934 65.615 97.753 76.763 112.599 2.48-4.948 3.716-9.897 6.188-13.611-9.904-4.948-54.477-100.224-53.24-127.446 9.903 17.325 53.24 121.262 55.713 121.262 1.235-4.949 4.951-9.897 6.187-14.846-17.335-33.406-37.142-66.818-40.857-106.407 9.903 11.133 37.142 91.563 43.336 100.225 1.236-3.714 4.952-7.427 6.188-12.376-14.855-47.017-19.807-37.119-29.717-97.753 2.479 6.184 32.19 89.091 32.19 91.563 2.48-3.714 4.951-9.898 6.187-12.376-4.951-12.376-22.286-77.952-19.806-91.562 3.716 8.662 22.286 85.378 23.523 85.378 4.951-9.898 11.139-18.56 16.099-28.458 0-14.846-22.287-61.869-21.05-86.613 4.951 12.375 23.522 81.665 23.522 81.665l4.952-6.184c-3.716-17.325-16.099-53.208-14.855-75.481 7.432 14.846 14.855 58.157 16.099 70.532l3.716-4.949c-4.952-16.089-9.903-59.392-7.431-76.716 2.479 6.184 9.903 68.054 9.903 73.003l3.716-4.949c0-12.375-1.236-51.963 3.716-58.156 1.235 14.846 3.715 42.068-2.48 55.679 0 0 2.48-3.714 3.715-4.949 2.48-27.221 12.384-29.699 14.855-49.494 6.188 7.427-6.187 29.699-7.431 38.355 8.667-7.427 28.475-22.273 35.905-23.509-14.854 19.795-40.857 33.406-44.572 39.597 14.855-2.478 19.806-12.375 43.336-8.662-7.431 4.949-44.573 11.132-45.809 13.611l-4.952 8.662c23.523-11.132 35.906-12.376 60.665-17.324-2.48 6.184-53.24 17.324-63.144 21.037l-2.48 4.949c26.002-3.714 53.24-14.846 75.527-17.325-13.619 17.324-60.665 19.795-79.234 24.744l-4.951 7.427c24.759-7.427 65.614-9.897 85.43 2.479-24.759-7.427-63.144-4.949-87.901 2.478l-2.48 4.949c21.05-8.662 58.192-11.133 76.763 1.235-23.523-7.427-58.192-3.714-80.479 3.713l-3.715 6.184c14.854-8.662 69.332-9.897 85.43-7.427-8.668 6.184-70.575 8.662-87.901 11.133l-6.188 12.375c21.05 0 54.477-18.559 94.098-12.375-6.188 4.948-84.194 16.089-95.334 17.324l-6.188 12.375c27.238-9.897 69.332-22.272 97.813-21.037-4.951 6.184-90.382 25.986-100.286 27.222l-6.187 13.611c32.19-2.479 90.382-30.935 108.953-30.935-24.759 19.794-84.194 39.597-111.432 38.355l-4.952 8.662c9.903 1.235 97.813-14.846 108.953-16.089-32.19 7.427-81.715 30.935-112.668 27.221l-4.952 11.133c24.759-6.184 89.146-16.089 110.19-18.56-19.807 18.56-82.952 28.458-112.669 24.744l-6.188 17.325c29.718 1.235 53.241-16.089 113.905-12.376-8.667 4.949-90.382 22.273-116.384 18.56l-4.951 12.375c28.474-6.184 90.382-17.324 127.524-13.611-38.379 14.846-100.286 22.273-131.24 24.744l-4.951 12.376zM268.067 611.968v1.235l6.188 2.478zm4.952 37.119 1.236 2.478 7.431 4.949-1.235-4.949zm4.952 34.648c1.236 7.427 0 6.184 4.951 9.897l3.716 2.478v-7.427zm53.24-215.302h1.236c-2.48-2.478-3.716-4.948-6.188-6.183h-1.236c1.236 2.478 3.716 3.713 6.188 6.183m22.286-9.897c1.236-2.478 3.716-3.713 4.952-4.948l-1.236-1.236c-2.48 1.236-4.952 1.236-7.431 2.479l3.715 3.713zm-53.24-21.037c2.48-1.235 3.716-1.235 6.188-2.478a22771 22771 0 0 1-11.14-18.56c-3.715 2.479-6.187 4.949-9.903 7.427 4.952 4.949 9.903 8.662 14.855 13.611m21.05-12.375c1.236 0 2.48-1.236 2.48-1.236-4.952-6.183-11.139-11.132-16.099-16.089l-2.48 1.235c4.952 6.184 11.139 11.133 16.099 16.09m32.19-28.458s1.236-1.235 1.236-2.478l-11.139-11.132h-1.236c3.716 4.948 7.432 9.897 11.139 13.61m11.14-16.089c1.235-1.235 1.235-2.478 2.479-3.713-2.479-2.479-3.715-3.714-4.951-6.184-1.236 1.235-2.48 1.235-4.952 2.478l7.432 7.427zm-40.858 16.089-2.48 1.235c4.952 4.949 11.139 9.898 16.099 14.846-4.951-4.948-8.667-11.132-13.619-16.089zm-12.383-6.184c1.236-1.235 3.716-2.478 4.952-4.948-3.716-4.949-6.188-9.897-8.668-14.846-3.716 3.714-8.667 6.184-12.383 8.662v1.235c6.188 2.479 11.139 6.184 16.099 9.897m30.954-32.17c1.236-1.235 3.716-3.713 4.951-6.184-1.236-1.235-2.48-3.713-3.716-4.948-2.479 1.235-6.187 3.713-8.667 4.948 2.48 2.479 4.952 4.949 7.432 6.184m-18.571-13.611c4.952-2.478 9.903-6.184 13.619-9.897-2.48-2.478-3.716-6.184-4.952-8.662-6.187 3.713-13.619 7.427-21.05 12.375 3.716 1.236 7.431 3.714 12.383 6.184m26.002-22.272c2.48-1.236 3.716-3.714 4.951-6.184-2.479 1.235-4.951 1.235-7.431 2.478l1.236 1.235 1.236 2.479zm-2.48-42.069c2.48-3.713 4.952-7.426 6.188-12.375-3.716 2.478-7.432 4.949-11.14 7.427zm-9.903-8.662c4.951-3.713 8.667-6.184 12.383-8.662-6.188 0-11.14 1.235-17.335 3.714z" clip-rule="evenodd"/><defs><linearGradient id="a" x1="557.744" x2="70.245" y1="572.725" y2="691.628" gradientUnits="userSpaceOnUse"><stop stop-color="#04051f"/></linearGradient><linearGradient id="b" x1="166.001" x2="265.501" y1="946" y2="586" gradientUnits="userSpaceOnUse"><stop stop-color="#1e209f"/><stop offset=".282" stop-color="#ffbd06"/><stop offset="1" stop-color="#9fffd9"/></linearGradient></defs></svg>